<mxfile host="app.diagrams.net" modified="2024-01-18T10:12:15.109Z" agent="Mozilla/5.0 (Windows NT 10.0; Win64; x64) AppleWebKit/537.36 (KHTML, like Gecko) Chrome/119.0.0.0 Safari/537.36 OPR/105.0.0.0" etag="RgogHabWKFCPv2CxfPEw" version="22.1.21" type="device">
  <diagram name="Page-1" id="QWwZaIjU0LpCsT88UaeY">
    <mxGraphModel dx="847" dy="561" grid="1" gridSize="10" guides="1" tooltips="1" connect="1" arrows="1" fold="1" page="1" pageScale="1" pageWidth="850" pageHeight="1100" background="none" math="0" shadow="0">
      <root>
        <mxCell id="0" />
        <mxCell id="1" parent="0" />
        <mxCell id="Ed0d97Dgv27OoX8CHdkf-120" style="edgeStyle=orthogonalEdgeStyle;rounded=0;orthogonalLoop=1;jettySize=auto;html=1;strokeColor=#FF0000;" parent="1" source="RrO7vwuF1ceFF9AUY4rb-1" target="Ed0d97Dgv27OoX8CHdkf-119" edge="1">
          <mxGeometry relative="1" as="geometry" />
        </mxCell>
        <mxCell id="RrO7vwuF1ceFF9AUY4rb-1" value="" style="ellipse;html=1;shape=startState;fillColor=#000000;strokeColor=#ff0000;" parent="1" vertex="1">
          <mxGeometry x="275" y="40" width="30" height="30" as="geometry" />
        </mxCell>
        <mxCell id="RrO7vwuF1ceFF9AUY4rb-12" style="edgeStyle=orthogonalEdgeStyle;rounded=0;orthogonalLoop=1;jettySize=auto;html=1;" parent="1" source="RrO7vwuF1ceFF9AUY4rb-4" target="RrO7vwuF1ceFF9AUY4rb-11" edge="1">
          <mxGeometry relative="1" as="geometry" />
        </mxCell>
        <mxCell id="RrO7vwuF1ceFF9AUY4rb-4" value="StartBossfight()" style="rounded=1;whiteSpace=wrap;html=1;" parent="1" vertex="1">
          <mxGeometry x="120" y="280" width="120" height="60" as="geometry" />
        </mxCell>
        <mxCell id="RrO7vwuF1ceFF9AUY4rb-20" style="edgeStyle=orthogonalEdgeStyle;rounded=0;orthogonalLoop=1;jettySize=auto;html=1;entryX=0.5;entryY=0;entryDx=0;entryDy=0;" parent="1" source="RrO7vwuF1ceFF9AUY4rb-5" target="RrO7vwuF1ceFF9AUY4rb-21" edge="1">
          <mxGeometry relative="1" as="geometry">
            <mxPoint x="420" y="360" as="targetPoint" />
          </mxGeometry>
        </mxCell>
        <mxCell id="RrO7vwuF1ceFF9AUY4rb-5" value="StartEncounter()" style="rounded=1;whiteSpace=wrap;html=1;" parent="1" vertex="1">
          <mxGeometry x="360" y="280" width="120" height="60" as="geometry" />
        </mxCell>
        <mxCell id="RrO7vwuF1ceFF9AUY4rb-15" style="edgeStyle=orthogonalEdgeStyle;rounded=0;orthogonalLoop=1;jettySize=auto;html=1;" parent="1" source="RrO7vwuF1ceFF9AUY4rb-11" target="RrO7vwuF1ceFF9AUY4rb-13" edge="1">
          <mxGeometry relative="1" as="geometry" />
        </mxCell>
        <mxCell id="RrO7vwuF1ceFF9AUY4rb-11" value="Assign Enemy the value of new boss" style="rounded=1;whiteSpace=wrap;html=1;" parent="1" vertex="1">
          <mxGeometry x="120" y="360" width="120" height="60" as="geometry" />
        </mxCell>
        <mxCell id="Ed0d97Dgv27OoX8CHdkf-9" style="edgeStyle=orthogonalEdgeStyle;rounded=0;orthogonalLoop=1;jettySize=auto;html=1;" parent="1" source="RrO7vwuF1ceFF9AUY4rb-13" target="Ed0d97Dgv27OoX8CHdkf-8" edge="1">
          <mxGeometry relative="1" as="geometry" />
        </mxCell>
        <mxCell id="RrO7vwuF1ceFF9AUY4rb-13" value="Assign it&#39;s level to be the dungeon level" style="rounded=1;whiteSpace=wrap;html=1;" parent="1" vertex="1">
          <mxGeometry x="120" y="440" width="120" height="60" as="geometry" />
        </mxCell>
        <mxCell id="Ed0d97Dgv27OoX8CHdkf-12" style="edgeStyle=orthogonalEdgeStyle;rounded=0;orthogonalLoop=1;jettySize=auto;html=1;entryX=0.5;entryY=0;entryDx=0;entryDy=0;" parent="1" source="RrO7vwuF1ceFF9AUY4rb-16" target="Ed0d97Dgv27OoX8CHdkf-132" edge="1">
          <mxGeometry relative="1" as="geometry">
            <mxPoint x="275" y="990" as="targetPoint" />
            <Array as="points">
              <mxPoint x="275" y="630" />
            </Array>
          </mxGeometry>
        </mxCell>
        <mxCell id="RrO7vwuF1ceFF9AUY4rb-16" value="Clear the console" style="rounded=1;whiteSpace=wrap;html=1;" parent="1" vertex="1">
          <mxGeometry x="120" y="600" width="120" height="60" as="geometry" />
        </mxCell>
        <mxCell id="RrO7vwuF1ceFF9AUY4rb-28" style="edgeStyle=orthogonalEdgeStyle;rounded=0;orthogonalLoop=1;jettySize=auto;html=1;" parent="1" source="RrO7vwuF1ceFF9AUY4rb-21" target="RrO7vwuF1ceFF9AUY4rb-23" edge="1">
          <mxGeometry relative="1" as="geometry">
            <Array as="points">
              <mxPoint x="475" y="410" />
              <mxPoint x="475" y="410" />
            </Array>
          </mxGeometry>
        </mxCell>
        <mxCell id="RrO7vwuF1ceFF9AUY4rb-35" value="0" style="edgeLabel;html=1;align=center;verticalAlign=middle;resizable=0;points=[];" parent="RrO7vwuF1ceFF9AUY4rb-28" vertex="1" connectable="0">
          <mxGeometry x="0.2519" y="-2" relative="1" as="geometry">
            <mxPoint x="-7" y="-2" as="offset" />
          </mxGeometry>
        </mxCell>
        <mxCell id="RrO7vwuF1ceFF9AUY4rb-29" style="edgeStyle=orthogonalEdgeStyle;rounded=0;orthogonalLoop=1;jettySize=auto;html=1;" parent="1" source="RrO7vwuF1ceFF9AUY4rb-21" target="RrO7vwuF1ceFF9AUY4rb-24" edge="1">
          <mxGeometry relative="1" as="geometry">
            <Array as="points">
              <mxPoint x="420" y="490" />
            </Array>
          </mxGeometry>
        </mxCell>
        <mxCell id="RrO7vwuF1ceFF9AUY4rb-36" value="1" style="edgeLabel;html=1;align=center;verticalAlign=middle;resizable=0;points=[];" parent="RrO7vwuF1ceFF9AUY4rb-29" vertex="1" connectable="0">
          <mxGeometry x="0.7072" y="1" relative="1" as="geometry">
            <mxPoint x="-18" y="1" as="offset" />
          </mxGeometry>
        </mxCell>
        <mxCell id="RrO7vwuF1ceFF9AUY4rb-31" style="edgeStyle=orthogonalEdgeStyle;rounded=0;orthogonalLoop=1;jettySize=auto;html=1;entryX=0;entryY=0.5;entryDx=0;entryDy=0;" parent="1" source="RrO7vwuF1ceFF9AUY4rb-21" target="RrO7vwuF1ceFF9AUY4rb-25" edge="1">
          <mxGeometry relative="1" as="geometry">
            <Array as="points">
              <mxPoint x="420" y="570" />
            </Array>
          </mxGeometry>
        </mxCell>
        <mxCell id="RrO7vwuF1ceFF9AUY4rb-37" value="2" style="edgeLabel;html=1;align=center;verticalAlign=middle;resizable=0;points=[];" parent="RrO7vwuF1ceFF9AUY4rb-31" vertex="1" connectable="0">
          <mxGeometry x="0.8274" relative="1" as="geometry">
            <mxPoint x="-18" as="offset" />
          </mxGeometry>
        </mxCell>
        <mxCell id="RrO7vwuF1ceFF9AUY4rb-33" style="edgeStyle=orthogonalEdgeStyle;rounded=0;orthogonalLoop=1;jettySize=auto;html=1;entryX=0;entryY=0.5;entryDx=0;entryDy=0;" parent="1" source="RrO7vwuF1ceFF9AUY4rb-21" target="RrO7vwuF1ceFF9AUY4rb-26" edge="1">
          <mxGeometry relative="1" as="geometry">
            <Array as="points">
              <mxPoint x="420" y="650" />
            </Array>
          </mxGeometry>
        </mxCell>
        <mxCell id="RrO7vwuF1ceFF9AUY4rb-38" value="3" style="edgeLabel;html=1;align=center;verticalAlign=middle;resizable=0;points=[];" parent="RrO7vwuF1ceFF9AUY4rb-33" vertex="1" connectable="0">
          <mxGeometry x="0.8655" y="3" relative="1" as="geometry">
            <mxPoint x="-17" y="3" as="offset" />
          </mxGeometry>
        </mxCell>
        <mxCell id="RrO7vwuF1ceFF9AUY4rb-34" style="edgeStyle=orthogonalEdgeStyle;rounded=0;orthogonalLoop=1;jettySize=auto;html=1;entryX=0;entryY=0.5;entryDx=0;entryDy=0;" parent="1" source="RrO7vwuF1ceFF9AUY4rb-21" target="RrO7vwuF1ceFF9AUY4rb-27" edge="1">
          <mxGeometry relative="1" as="geometry">
            <Array as="points">
              <mxPoint x="420" y="730" />
            </Array>
          </mxGeometry>
        </mxCell>
        <mxCell id="RrO7vwuF1ceFF9AUY4rb-39" value="4" style="edgeLabel;html=1;align=center;verticalAlign=middle;resizable=0;points=[];" parent="RrO7vwuF1ceFF9AUY4rb-34" vertex="1" connectable="0">
          <mxGeometry x="0.8779" y="2" relative="1" as="geometry">
            <mxPoint x="-13" y="2" as="offset" />
          </mxGeometry>
        </mxCell>
        <mxCell id="RrO7vwuF1ceFF9AUY4rb-21" value="randomNumber between 0 and 5" style="rhombus;whiteSpace=wrap;html=1;" parent="1" vertex="1">
          <mxGeometry x="380" y="370" width="80" height="80" as="geometry" />
        </mxCell>
        <mxCell id="RrO7vwuF1ceFF9AUY4rb-41" style="edgeStyle=orthogonalEdgeStyle;rounded=0;orthogonalLoop=1;jettySize=auto;html=1;entryX=1;entryY=0.5;entryDx=0;entryDy=0;" parent="1" source="RrO7vwuF1ceFF9AUY4rb-23" target="RrO7vwuF1ceFF9AUY4rb-40" edge="1">
          <mxGeometry relative="1" as="geometry">
            <Array as="points">
              <mxPoint x="645" y="410" />
              <mxPoint x="645" y="800" />
            </Array>
          </mxGeometry>
        </mxCell>
        <mxCell id="RrO7vwuF1ceFF9AUY4rb-23" value="new skeleton" style="rounded=1;whiteSpace=wrap;html=1;" parent="1" vertex="1">
          <mxGeometry x="495" y="380" width="120" height="60" as="geometry" />
        </mxCell>
        <mxCell id="RrO7vwuF1ceFF9AUY4rb-42" style="edgeStyle=orthogonalEdgeStyle;rounded=0;orthogonalLoop=1;jettySize=auto;html=1;entryX=1;entryY=0.5;entryDx=0;entryDy=0;" parent="1" source="RrO7vwuF1ceFF9AUY4rb-24" target="RrO7vwuF1ceFF9AUY4rb-40" edge="1">
          <mxGeometry relative="1" as="geometry">
            <Array as="points">
              <mxPoint x="645" y="490" />
              <mxPoint x="645" y="800" />
            </Array>
          </mxGeometry>
        </mxCell>
        <mxCell id="RrO7vwuF1ceFF9AUY4rb-24" value="new ghoul" style="rounded=1;whiteSpace=wrap;html=1;" parent="1" vertex="1">
          <mxGeometry x="495" y="460" width="120" height="60" as="geometry" />
        </mxCell>
        <mxCell id="RrO7vwuF1ceFF9AUY4rb-43" style="edgeStyle=orthogonalEdgeStyle;rounded=0;orthogonalLoop=1;jettySize=auto;html=1;entryX=1;entryY=0.5;entryDx=0;entryDy=0;" parent="1" source="RrO7vwuF1ceFF9AUY4rb-25" target="RrO7vwuF1ceFF9AUY4rb-40" edge="1">
          <mxGeometry relative="1" as="geometry">
            <Array as="points">
              <mxPoint x="645" y="570" />
              <mxPoint x="645" y="800" />
            </Array>
          </mxGeometry>
        </mxCell>
        <mxCell id="RrO7vwuF1ceFF9AUY4rb-25" value="new zombie" style="rounded=1;whiteSpace=wrap;html=1;" parent="1" vertex="1">
          <mxGeometry x="495" y="540" width="120" height="60" as="geometry" />
        </mxCell>
        <mxCell id="RrO7vwuF1ceFF9AUY4rb-44" style="edgeStyle=orthogonalEdgeStyle;rounded=0;orthogonalLoop=1;jettySize=auto;html=1;entryX=1;entryY=0.5;entryDx=0;entryDy=0;" parent="1" source="RrO7vwuF1ceFF9AUY4rb-26" target="RrO7vwuF1ceFF9AUY4rb-40" edge="1">
          <mxGeometry relative="1" as="geometry">
            <Array as="points">
              <mxPoint x="645" y="650" />
              <mxPoint x="645" y="800" />
            </Array>
          </mxGeometry>
        </mxCell>
        <mxCell id="RrO7vwuF1ceFF9AUY4rb-26" value="new spider" style="rounded=1;whiteSpace=wrap;html=1;" parent="1" vertex="1">
          <mxGeometry x="495" y="620" width="120" height="60" as="geometry" />
        </mxCell>
        <mxCell id="RrO7vwuF1ceFF9AUY4rb-45" style="edgeStyle=orthogonalEdgeStyle;rounded=0;orthogonalLoop=1;jettySize=auto;html=1;entryX=1;entryY=0.5;entryDx=0;entryDy=0;" parent="1" source="RrO7vwuF1ceFF9AUY4rb-27" target="RrO7vwuF1ceFF9AUY4rb-40" edge="1">
          <mxGeometry relative="1" as="geometry">
            <Array as="points">
              <mxPoint x="645" y="730" />
              <mxPoint x="645" y="800" />
            </Array>
          </mxGeometry>
        </mxCell>
        <mxCell id="RrO7vwuF1ceFF9AUY4rb-27" value="new wraith" style="rounded=1;whiteSpace=wrap;html=1;" parent="1" vertex="1">
          <mxGeometry x="495" y="700" width="120" height="60" as="geometry" />
        </mxCell>
        <mxCell id="Ed0d97Dgv27OoX8CHdkf-2" style="edgeStyle=orthogonalEdgeStyle;rounded=0;orthogonalLoop=1;jettySize=auto;html=1;" parent="1" source="RrO7vwuF1ceFF9AUY4rb-40" target="Ed0d97Dgv27OoX8CHdkf-1" edge="1">
          <mxGeometry relative="1" as="geometry" />
        </mxCell>
        <mxCell id="RrO7vwuF1ceFF9AUY4rb-40" value="Assign Enemy the random class" style="rounded=1;whiteSpace=wrap;html=1;" parent="1" vertex="1">
          <mxGeometry x="495" y="770" width="120" height="60" as="geometry" />
        </mxCell>
        <mxCell id="Ed0d97Dgv27OoX8CHdkf-5" style="edgeStyle=orthogonalEdgeStyle;rounded=0;orthogonalLoop=1;jettySize=auto;html=1;" parent="1" source="Ed0d97Dgv27OoX8CHdkf-1" target="Ed0d97Dgv27OoX8CHdkf-3" edge="1">
          <mxGeometry relative="1" as="geometry" />
        </mxCell>
        <mxCell id="Ed0d97Dgv27OoX8CHdkf-1" value="Assign it&#39;s level to be a random level under the players level" style="rounded=1;whiteSpace=wrap;html=1;" parent="1" vertex="1">
          <mxGeometry x="360" y="770" width="120" height="60" as="geometry" />
        </mxCell>
        <mxCell id="Ed0d97Dgv27OoX8CHdkf-7" style="edgeStyle=orthogonalEdgeStyle;rounded=0;orthogonalLoop=1;jettySize=auto;html=1;" parent="1" source="Ed0d97Dgv27OoX8CHdkf-3" target="Ed0d97Dgv27OoX8CHdkf-6" edge="1">
          <mxGeometry relative="1" as="geometry" />
        </mxCell>
        <mxCell id="Ed0d97Dgv27OoX8CHdkf-3" value="Assign it&#39;s level to be a random level under the players level" style="rounded=1;whiteSpace=wrap;html=1;" parent="1" vertex="1">
          <mxGeometry x="360" y="850" width="120" height="60" as="geometry" />
        </mxCell>
        <mxCell id="Ed0d97Dgv27OoX8CHdkf-11" style="edgeStyle=orthogonalEdgeStyle;rounded=0;orthogonalLoop=1;jettySize=auto;html=1;entryX=1;entryY=0.5;entryDx=0;entryDy=0;" parent="1" source="Ed0d97Dgv27OoX8CHdkf-6" target="Ed0d97Dgv27OoX8CHdkf-132" edge="1">
          <mxGeometry relative="1" as="geometry">
            <Array as="points">
              <mxPoint x="415" y="1025" />
            </Array>
          </mxGeometry>
        </mxCell>
        <mxCell id="Ed0d97Dgv27OoX8CHdkf-6" value="Assign it random stats" style="rounded=1;whiteSpace=wrap;html=1;" parent="1" vertex="1">
          <mxGeometry x="360" y="930" width="120" height="60" as="geometry" />
        </mxCell>
        <mxCell id="Ed0d97Dgv27OoX8CHdkf-10" style="edgeStyle=orthogonalEdgeStyle;rounded=0;orthogonalLoop=1;jettySize=auto;html=1;" parent="1" source="Ed0d97Dgv27OoX8CHdkf-8" target="RrO7vwuF1ceFF9AUY4rb-16" edge="1">
          <mxGeometry relative="1" as="geometry" />
        </mxCell>
        <mxCell id="Ed0d97Dgv27OoX8CHdkf-8" value="Assign it random stats" style="rounded=1;whiteSpace=wrap;html=1;" parent="1" vertex="1">
          <mxGeometry x="120" y="520" width="120" height="60" as="geometry" />
        </mxCell>
        <mxCell id="Ed0d97Dgv27OoX8CHdkf-121" style="edgeStyle=orthogonalEdgeStyle;rounded=0;orthogonalLoop=1;jettySize=auto;html=1;" parent="1" source="Ed0d97Dgv27OoX8CHdkf-119" target="RrO7vwuF1ceFF9AUY4rb-4" edge="1">
          <mxGeometry relative="1" as="geometry" />
        </mxCell>
        <mxCell id="Ed0d97Dgv27OoX8CHdkf-122" value="true" style="edgeLabel;html=1;align=center;verticalAlign=middle;resizable=0;points=[];" parent="Ed0d97Dgv27OoX8CHdkf-121" vertex="1" connectable="0">
          <mxGeometry x="0.2948" y="-1" relative="1" as="geometry">
            <mxPoint as="offset" />
          </mxGeometry>
        </mxCell>
        <mxCell id="Ed0d97Dgv27OoX8CHdkf-124" style="edgeStyle=orthogonalEdgeStyle;rounded=0;orthogonalLoop=1;jettySize=auto;html=1;entryX=0.5;entryY=0;entryDx=0;entryDy=0;" parent="1" source="Ed0d97Dgv27OoX8CHdkf-119" target="Ed0d97Dgv27OoX8CHdkf-123" edge="1">
          <mxGeometry relative="1" as="geometry">
            <Array as="points">
              <mxPoint x="420" y="140" />
            </Array>
          </mxGeometry>
        </mxCell>
        <mxCell id="Ed0d97Dgv27OoX8CHdkf-125" value="false" style="edgeLabel;html=1;align=center;verticalAlign=middle;resizable=0;points=[];" parent="Ed0d97Dgv27OoX8CHdkf-124" vertex="1" connectable="0">
          <mxGeometry x="-0.4595" y="1" relative="1" as="geometry">
            <mxPoint x="16" y="1" as="offset" />
          </mxGeometry>
        </mxCell>
        <mxCell id="Ed0d97Dgv27OoX8CHdkf-119" value="is in boss room" style="rhombus;whiteSpace=wrap;html=1;" parent="1" vertex="1">
          <mxGeometry x="250" y="100" width="80" height="80" as="geometry" />
        </mxCell>
        <mxCell id="Ed0d97Dgv27OoX8CHdkf-126" style="edgeStyle=orthogonalEdgeStyle;rounded=0;orthogonalLoop=1;jettySize=auto;html=1;" parent="1" source="Ed0d97Dgv27OoX8CHdkf-123" target="RrO7vwuF1ceFF9AUY4rb-5" edge="1">
          <mxGeometry relative="1" as="geometry" />
        </mxCell>
        <mxCell id="Ed0d97Dgv27OoX8CHdkf-127" value="true" style="edgeLabel;html=1;align=center;verticalAlign=middle;resizable=0;points=[];" parent="Ed0d97Dgv27OoX8CHdkf-126" vertex="1" connectable="0">
          <mxGeometry x="-0.1635" y="2" relative="1" as="geometry">
            <mxPoint x="-2" as="offset" />
          </mxGeometry>
        </mxCell>
        <mxCell id="Ed0d97Dgv27OoX8CHdkf-133" style="edgeStyle=orthogonalEdgeStyle;rounded=0;orthogonalLoop=1;jettySize=auto;html=1;entryX=1;entryY=0.5;entryDx=0;entryDy=0;" parent="1" source="Ed0d97Dgv27OoX8CHdkf-123" target="Ed0d97Dgv27OoX8CHdkf-132" edge="1">
          <mxGeometry relative="1" as="geometry">
            <Array as="points">
              <mxPoint x="660" y="200" />
              <mxPoint x="660" y="1025" />
            </Array>
          </mxGeometry>
        </mxCell>
        <mxCell id="DgCFvlaVP_XbZK4wM-wE-1" value="false" style="edgeLabel;html=1;align=center;verticalAlign=middle;resizable=0;points=[];" vertex="1" connectable="0" parent="Ed0d97Dgv27OoX8CHdkf-133">
          <mxGeometry x="-0.9087" y="-4" relative="1" as="geometry">
            <mxPoint x="-24" y="-4" as="offset" />
          </mxGeometry>
        </mxCell>
        <mxCell id="Ed0d97Dgv27OoX8CHdkf-123" value="has encounter" style="rhombus;whiteSpace=wrap;html=1;" parent="1" vertex="1">
          <mxGeometry x="380" y="160" width="80" height="80" as="geometry" />
        </mxCell>
        <mxCell id="Ed0d97Dgv27OoX8CHdkf-132" value="" style="ellipse;html=1;shape=endState;fillColor=#000000;strokeColor=#ff0000;" parent="1" vertex="1">
          <mxGeometry x="260" y="1010" width="30" height="30" as="geometry" />
        </mxCell>
      </root>
    </mxGraphModel>
  </diagram>
</mxfile>
